<?xml version="1.0" standalone="no"?>
<!DOCTYPE svg PUBLIC "-//W3C//DTD SVG 20010904//EN"
 "http://www.w3.org/TR/2001/REC-SVG-20010904/DTD/svg10.dtd">
<svg version="1.0" xmlns="http://www.w3.org/2000/svg"
 width="522.000000pt" height="515.000000pt" viewBox="0 0 522.000000 515.000000"
 preserveAspectRatio="xMidYMid meet">

<g transform="translate(0.000000,515.000000) scale(0.100000,-0.100000)"
fill="#000000" stroke="none">
<path d="M3590 4460 c-139 -43 -822 -250 -1135 -345 l-120 -36 -937 -937
c-929 -929 -938 -938 -938 -977 0 -39 8 -48 823 -862 678 -679 828 -824 855
-829 34 -7 38 -3 982 941 522 522 950 958 953 969 2 12 77 262 167 556 263
867 259 851 248 880 -4 14 -158 175 -341 358 -314 313 -335 332 -367 331 -19
-1 -105 -23 -190 -49z m454 -399 l288 -288 -135 -449 c-75 -247 -165 -546
-201 -664 l-66 -215 -887 -889 c-489 -490 -889 -892 -891 -895 -2 -3 -342 334
-757 749 l-755 755 890 890 891 891 662 201 c364 111 664 201 667 202 3 1 135
-129 294 -288z"/>
<path d="M3518 3673 c-104 -104 -191 -198 -194 -210 -15 -57 32 -107 91 -96
13 3 104 86 209 192 173 174 186 190 186 223 0 28 -7 42 -26 57 -53 42 -64 35
-266 -166z"/>
<path d="M2335 2891 c-128 -31 -215 -146 -215 -280 1 -112 50 -223 145 -331
87 -99 125 -175 125 -251 0 -47 -5 -63 -26 -88 -56 -67 -163 -63 -274 11 -150
100 -224 278 -156 377 50 72 26 141 -49 141 -56 0 -115 -87 -129 -191 -10 -69
17 -181 62 -260 l39 -66 -44 -46 c-48 -52 -54 -81 -22 -121 32 -41 79 -36 134
15 l44 41 48 -29 c74 -45 131 -64 208 -70 191 -15 318 100 317 287 -1 125 -45
221 -162 355 -128 144 -140 290 -29 348 73 39 209 -12 301 -112 67 -72 100
-138 106 -211 3 -46 0 -61 -21 -91 -35 -51 -41 -76 -27 -109 14 -34 60 -53 94
-40 31 11 72 65 91 119 33 94 9 243 -55 345 l-31 49 39 41 c52 53 59 99 22
136 -33 33 -74 26 -126 -22 l-45 -41 -37 22 c-114 68 -233 94 -327 72z"/>
</g>
</svg>
